<svg xmlns="http://www.w3.org/2000/svg" width="80" height="80" fill="none"><path fill="#81B3D2" fill-rule="evenodd" d="M72.5314 36.3747v-.0008c.0233-.828.0548-1.945-.017-2.2331C71.8163 18.5181 57.4541 6 39.8005 6 22.147 6 7.68504 18.5181 6.98688 34.1408v3.0043H72.5144c0-.1685.0079-.4475.017-.7704ZM39.8005 9.00435c15.958 0 29.1234 11.21625 29.7218 25.13645H9.979c.6982-13.9202 13.8635-25.13645 29.8215-25.13645ZM23.2441 48.8621l-5.3858-4.0058-5.4856 4.0058-6.3832-4.7068 1.79528-2.4035 4.58792 3.3048 5.4856-4.0058 5.3858 4.0058 5.4856-4.0058 5.4855 4.0058 5.4856-4.0058 5.3858 4.0058 5.4856-4.0058 5.4855 4.0058 5.4856-4.0058 5.4856 4.0058 4.5879-3.3048 1.6955 2.4035-6.2834 4.7068-5.4856-4.0058-5.4856 4.0058-5.4855-4.0058-5.4856 4.0058-5.3858-4.0058-5.4856 4.0058-5.4855-4.0058-5.4856 4.0058ZM6.28871 52.0667H73.7113c2.3937 0 4.2887 2.0029 4.2887 4.206v3.5051c0 2.4035-1.9947 4.3063-4.2887 4.3063h-.9974v1.0014c0 5.4079-4.3884 9.9144-9.874 9.9144H17.1601c-5.3858 0-9.87401-4.4064-9.87401-9.9144v-1.0014h-.99738C3.89501 64.0841 2 62.1813 2 59.878v-3.5051c0-2.3033 1.89501-4.3062 4.28871-4.3062ZM62.9396 71.9955c3.7901 0 6.8819-3.1045 6.8819-6.91v-1.0014h-59.643v1.0014c0 3.8055 3.0918 6.91 6.8819 6.91h45.8792Zm10.7717-10.9158c.6982 0 1.2966-.6009 1.2966-1.3019h.0997v-3.4049c0-.701-.5984-1.3019-1.2966-1.3019H6.28871c-.69816 0-1.29658.6009-1.29658 1.2017v3.5051c0 .701.59842 1.3019 1.29658 1.3019H73.7113ZM41.895 21.6228c0 1.1061-.8931 2.0029-1.9947 2.0029-1.1017 0-1.9948-.8968-1.9948-2.0029 0-1.1062.8931-2.0029 1.9948-2.0029 1.1016 0 1.9947.8967 1.9947 2.0029Zm-9.9737-3.0044c1.1016 0 1.9947-.8968 1.9947-2.0029 0-1.1062-.8931-2.003-1.9947-2.003-1.1017 0-1.9948.8968-1.9948 2.003 0 1.1061.8931 2.0029 1.9948 2.0029Zm17.9527-2.0029c0 1.1061-.8931 2.0029-1.9947 2.0029-1.1017 0-1.9948-.8968-1.9948-2.0029 0-1.1062.8931-2.003 1.9948-2.003 1.1016 0 1.9947.8968 1.9947 2.003Z" clip-rule="evenodd"/></svg>