<svg xmlns="http://www.w3.org/2000/svg" width="80" height="80" fill="none"><path fill="#81B3D2" fill-rule="evenodd" d="M75.8916 43.1823 78 41.0939l-9.9398-9.8453V4.39779H54.2048V17.5249L40.4498 4 3 41.1934l2.10843 2.0884 7.83137-7.7569V73.116H9.0241V76h64.1566v-2.884h-5.1205V35.4254l7.8314 7.7569ZM57.1165 7.38122h7.9317V28.3646l-7.9317-7.8563V7.38122Zm7.9317 65.63538H15.9518V32.5414l24.498-24.3646 24.5984 24.3646v40.4752Zm-31.9276-4.4752h16.0643v-23.768H33.1206v23.768Zm13.0522-2.884H36.0323v-18h10.1405v18Zm-5.3213-26.3535c-4.2168 0-7.7309-3.4807-7.7309-7.7569 0-4.2763 3.4137-7.6575 7.7309-7.6575 4.3173 0 7.8314 3.3812 7.8314 7.6575 0 4.2762-3.5141 7.7569-7.8314 7.7569Zm5.0201-7.7569c0-2.7845-2.3092-4.9724-5.0201-4.9724-2.7108 0-5.02 2.2873-5.02 4.9724 0 2.7845 2.3092 4.9724 5.02 4.9724 2.8113 0 5.0201-2.2873 5.0201-4.9724ZM23.0803 44.7734h-3.012v3.8785h3.012v-3.8785Zm3.0121 0h3.012v3.8785h-3.012v-3.8785Zm-3.0121 5.967h-3.012v3.8784h3.012v-3.8784Zm3.0121 0h3.012v3.8784h-3.012v-3.8784Zm29.1164-5.967h-3.012v3.8785h3.012v-3.8785Zm3.0121 0h3.012v3.8785h-3.012v-3.8785Zm-3.0121 5.967h-3.012v3.8784h3.012v-3.8784Zm3.0121 0h3.012v3.8784h-3.012v-3.8784Z" clip-rule="evenodd"/></svg>