<svg xmlns="http://www.w3.org/2000/svg" width="80" height="80" fill="none"><path fill="#81B3D2" d="M69.2 25.1167H44.8C58.4 18.3189 59.5 14.0202 59 11.621c-1.1-3.89879-5.6-6.89784-9.8-5.29834-5.5 2.09933-7 10.29674-8.5 16.19484-1.9-5.9981-3.7-13.59567-8-17.49443-1.2-1.09966-3-2.19931-5.7-1.99937-4 .39987-9.7 5.29832-7.3 10.7966 2.2 5.2983 9.5 8.6972 14.4 11.3964H11.8c-1.6 0-2.8 1.2996-2.8 2.7991v11.1965c0 1.5995 1.3 2.7991 2.8 2.7991h.3V78h57V42.0114h.1c1.6 0 2.8-1.2996 2.8-2.7991V28.0158c0-1.5995-1.3-2.8991-2.8-2.8991ZM50.8 8.82187c2.1-.29991 4.9 1.29963 5.2 3.19903.4 2.6991-3.3 5.1983-5 6.298-2.5 1.6994-4.9 2.5991-7.2 3.9987.8-3.6988 2.5-12.89592 7-13.49573ZM28.2 18.6188c-2.2-1.4996-6.4-4.3986-6.3-7.6976.1-3.59886 5.7-6.49794 8.7-3.7988 3.8 3.299 5.6 10.9965 7 16.3948-3.2-1.5995-6.2-2.7991-9.4-4.8984Zm5.9 56.3821H15V42.0114h19.1v32.9895Zm0-35.9886H12V28.1158h22.1v10.8965Zm10 35.9886H37V28.1158h7.1v46.8851Zm22 0h-19V42.0114h19.1v32.9895h-.1ZM69 39.0123H47.1V28.1158H69v10.8965Z"/></svg>